<svg fill="#a3e635" width="36px" height="36px" viewBox="0 0 1.08 1.08" xmlns="http://www.w3.org/2000/svg">
  <path fill-rule="evenodd" d="M0.397 0.9a0.135 0.135 0 1 1 0 -0.09h0.39a0.112 0.112 0 1 0 0 -0.225h-0.495a0.202 0.202 0 1 1 0 -0.405h0.139L0.373 0.122l0.064 -0.064L0.604 0.225 0.437 0.392 0.373 0.328 0.431 0.27H0.292a0.112 0.112 0 0 0 0 0.225h0.495a0.202 0.202 0 1 1 0 0.405H0.397ZM0.27 0.81a0.045 0.045 0 1 0 0 0.09 0.045 0.045 0 0 0 0 -0.09ZM0.81 0.09a0.135 0.135 0 1 1 0 0.27 0.135 0.135 0 0 1 0 -0.27Zm0 0.09a0.045 0.045 0 1 0 0 0.09 0.045 0.045 0 0 0 0 -0.09Z"/>
</svg>
